<mxfile host="app.diagrams.net" modified="2020-09-14T03:36:15.564Z" agent="5.0 (Macintosh; Intel Mac OS X 10_15_5) AppleWebKit/537.36 (KHTML, like Gecko) Chrome/85.0.4183.102 Safari/537.36" etag="PleJBENWLXOQ_tBWWXWo" version="13.6.10" type="github">
  <diagram id="b3-t0UWF-XYKawSAY5rW" name="Page-1">
    <mxGraphModel dx="1298" dy="698" grid="1" gridSize="10" guides="1" tooltips="1" connect="1" arrows="1" fold="1" page="1" pageScale="1" pageWidth="1920" pageHeight="1200" math="0" shadow="0">
      <root>
        <mxCell id="0" />
        <mxCell id="1" parent="0" />
        <mxCell id="aKZgCBcFynFyDvUguAXq-1" value="DB Security Group" style="fontStyle=0;verticalAlign=top;align=center;spacingTop=-2;fillColor=none;rounded=0;whiteSpace=wrap;html=1;strokeColor=#FF0000;strokeWidth=2;dashed=1;container=1;collapsible=0;expand=0;recursiveResize=0;" vertex="1" parent="1">
          <mxGeometry x="120" y="80" width="240" height="240" as="geometry" />
        </mxCell>
        <mxCell id="aKZgCBcFynFyDvUguAXq-2" value="" style="outlineConnect=0;dashed=0;verticalLabelPosition=bottom;verticalAlign=top;align=center;html=1;shape=mxgraph.aws3.rds_db_instance;fillColor=#2E73B8;gradientColor=none;" vertex="1" parent="aKZgCBcFynFyDvUguAXq-1">
          <mxGeometry x="20" y="40" width="49.5" height="66" as="geometry" />
        </mxCell>
      </root>
    </mxGraphModel>
  </diagram>
</mxfile>
